<svg width="48" height="48" viewBox="0 0 48 48" fill="none" xmlns="http://www.w3.org/2000/svg">
<g id="SVG">
<path id="Vector" d="M30.954 25.7803L33.984 42.8323C34.0179 43.0331 33.9898 43.2394 33.9032 43.4238C33.8167 43.6081 33.676 43.7617 33.4999 43.8639C33.3237 43.9661 33.1206 44.0121 32.9176 43.9957C32.7146 43.9793 32.5215 43.9014 32.364 43.7723L25.204 38.3983C24.8583 38.14 24.4384 38.0005 24.007 38.0005C23.5755 38.0005 23.1556 38.14 22.81 38.3983L15.638 43.7703C15.4806 43.8991 15.2877 43.977 15.085 43.9934C14.8822 44.0097 14.6793 43.9639 14.5033 43.862C14.3273 43.7601 14.1865 43.6069 14.0998 43.4229C14.0131 43.239 13.9846 43.0329 14.018 42.8323L17.046 25.7803" stroke="#048850" stroke-width="4" stroke-linecap="round" stroke-linejoin="round"/>
<path id="Vector_2" d="M24 28C30.6274 28 36 22.6274 36 16C36 9.37258 30.6274 4 24 4C17.3726 4 12 9.37258 12 16C12 22.6274 17.3726 28 24 28Z" stroke="#048850" stroke-width="4" stroke-linecap="round" stroke-linejoin="round"/>
</g>
</svg>
